<svg xmlns="http://www.w3.org/2000/svg" width="44" height="45" fill="none" viewBox="0 0 44 45">
  <path fill="#000" d="M43.637 41.37c-3.202-5.709-8.136-9.802-13.894-11.742 2.848-1.749 5.06-4.413 6.299-7.584a16.068 16.068 0 0 0 .552-9.97c-.88-3.295-2.783-6.202-5.42-8.274A14.84 14.84 0 0 0 22 .606 14.84 14.84 0 0 0 12.826 3.8c-2.637 2.072-4.54 4.979-5.42 8.275a16.068 16.068 0 0 0 .552 9.969c1.238 3.171 3.451 5.835 6.3 7.584C8.498 31.566 3.564 35.659.362 41.37a1.769 1.769 0 0 0-.196 1.333c.055.224.153.435.289.62.135.185.305.34.5.455a1.647 1.647 0 0 0 1.297.168 1.675 1.675 0 0 0 1.022-.842C7.235 36.045 14.236 31.831 22 31.831c7.764 0 14.764 4.214 18.725 11.273a1.69 1.69 0 0 0 1.022.842 1.633 1.633 0 0 0 1.297-.168c.195-.116.365-.27.5-.455.136-.185.234-.396.29-.62a1.787 1.787 0 0 0-.197-1.333Zm-33.41-25.15c0-2.401.69-4.748 1.984-6.745a11.86 11.86 0 0 1 5.284-4.471 11.442 11.442 0 0 1 6.802-.691 11.666 11.666 0 0 1 6.027 3.323 12.263 12.263 0 0 1 3.223 6.216 12.494 12.494 0 0 1-.67 7.014 12.068 12.068 0 0 1-4.337 5.449A11.52 11.52 0 0 1 22 28.362c-3.121-.004-6.114-1.284-8.32-3.56-2.208-2.276-3.45-5.362-3.453-8.58Z"/>
</svg>
